<svg width="24" height="24" viewBox="0 0 24 24" fill="none" xmlns="http://www.w3.org/2000/svg">
<path fill-rule="evenodd" clip-rule="evenodd" d="M15.7502 3.435V1.875C15.7502 1.465 15.4102 1.125 15.0002 1.125C14.5902 1.125 14.2502 1.465 14.2502 1.875V3.375H7.75023V1.875C7.75023 1.465 7.41023 1.125 7.00023 1.125C6.59023 1.125 6.25023 1.465 6.25023 1.875V3.435C3.55023 3.685 2.24023 5.295 2.04023 7.685C2.02023 7.975 2.26023 8.215 2.54023 8.215H19.4602C19.7502 8.215 19.9902 7.965 19.9602 7.685C19.7602 5.295 18.4502 3.685 15.7502 3.435ZM14 18.875C14 16.665 15.79 14.875 18 14.875C20.21 14.875 22 16.665 22 18.875C22 19.625 21.79 20.335 21.42 20.935C20.73 22.095 19.46 22.875 18 22.875C16.54 22.875 15.27 22.095 14.58 20.935C14.21 20.335 14 19.625 14 18.875ZM18.0012 18.6538C18.7527 18.6538 19.3618 18.0447 19.3618 17.2932C19.3618 16.5418 18.7527 15.9326 18.0012 15.9326C17.2498 15.9326 16.6406 16.5418 16.6406 17.2932C16.6406 18.0447 17.2498 18.6538 18.0012 18.6538ZM18.0009 19.3336C16.6376 19.3336 15.5273 20.2479 15.5273 21.3745C15.5273 21.4507 15.5872 21.5106 15.6634 21.5106H20.3385C20.4147 21.5106 20.4745 21.4507 20.4745 21.3745C20.4745 20.2479 19.3643 19.3336 18.0009 19.3336ZM19 9.71484H3C2.45 9.71484 2 10.1648 2 10.7148V16.8748C2 19.8748 3.5 21.8748 7 21.8748H11.93C12.62 21.8748 13.1 21.2048 12.88 20.5548C12.68 19.9748 12.51 19.3348 12.51 18.8748C12.51 15.8448 14.98 13.3748 18.01 13.3748C18.3 13.3748 18.59 13.3948 18.87 13.4448C19.47 13.5348 20.01 13.0648 20.01 12.4648V10.7248C20 10.1648 19.55 9.71484 19 9.71484ZM3.9707 12.7998C3.9707 12.3856 4.30649 12.0498 4.7207 12.0498H13C13.4142 12.0498 13.75 12.3856 13.75 12.7998C13.75 13.214 13.4142 13.5498 13 13.5498H4.7207C4.30649 13.5498 3.9707 13.214 3.9707 12.7998ZM3.9707 17.2998C3.9707 16.8856 4.30649 16.5498 4.7207 16.5498H7.65345C8.06766 16.5498 8.40345 16.8856 8.40345 17.2998C8.40345 17.714 8.06766 18.0498 7.65345 18.0498H4.7207C4.30649 18.0498 3.9707 17.714 3.9707 17.2998ZM10.327 18.0498C10.5232 18.0498 10.7194 17.9668 10.8628 17.8309C10.9987 17.6875 11.0817 17.4913 11.0817 17.2951C11.0817 17.0989 10.9987 16.9026 10.8628 16.7592C10.5836 16.48 10.0779 16.48 9.79113 16.7592C9.65528 16.9026 9.57227 17.0989 9.57227 17.2951C9.57227 17.4913 9.65528 17.6875 9.79113 17.8309C9.93453 17.9668 10.1308 18.0498 10.327 18.0498Z" fill="#8496AC"/>
</svg>
