<svg width="20" height="20" viewBox="0 0 20 20" fill="none" xmlns="http://www.w3.org/2000/svg">
<path d="M2.79164 1.66602H10.2083C10.825 1.66602 11.3333 2.17435 11.3333 2.79102V4.02434C11.3333 4.47434 11.05 5.03269 10.775 5.31602L8.35835 7.44935C8.02502 7.73268 7.79998 8.29101 7.79998 8.74101V11.1577C7.79998 11.491 7.575 11.941 7.29166 12.116L6.50833 12.6243C5.77499 13.0743 4.76664 12.566 4.76664 11.666V8.69101C4.76664 8.29934 4.54166 7.79102 4.31666 7.50769L2.18333 5.25768C1.89999 4.97435 1.675 4.47434 1.675 4.13268V2.84102C1.66667 2.17435 2.17498 1.66602 2.79164 1.66602Z" stroke="#8496AC" stroke-width="1.5" stroke-miterlimit="10" stroke-linecap="round" stroke-linejoin="round"/>
<path d="M1.66666 10.0005V12.5005C1.66666 16.6672 3.33333 18.3339 7.5 18.3339H12.5C16.6667 18.3339 18.3333 16.6672 18.3333 12.5005V7.50053C18.3333 4.90053 17.6833 3.26719 16.175 2.41719C15.75 2.17552 14.9 1.99219 14.125 1.86719" stroke="#8496AC" stroke-width="1.5" stroke-linecap="round" stroke-linejoin="round"/>
<path d="M10.8333 10.834H15" stroke="#8496AC" stroke-width="1.5" stroke-linecap="round" stroke-linejoin="round"/>
<path d="M9.16666 14.166H15" stroke="#8496AC" stroke-width="1.5" stroke-linecap="round" stroke-linejoin="round"/>
</svg>
