<svg width="24" height="24" viewBox="0 0 24 24" fill="none" xmlns="http://www.w3.org/2000/svg">
<g clip-path="url(#clip0_114_740)">
<path d="M22 12.6666C21.9123 12.6671 21.8253 12.6502 21.7441 12.6171C21.6629 12.5839 21.589 12.535 21.5267 12.4732L12 2.93988L2.47335 12.4732C2.34582 12.5824 2.18177 12.6395 2.01398 12.633C1.8462 12.6265 1.68704 12.557 1.56831 12.4383C1.44958 12.3195 1.38002 12.1604 1.37354 11.9926C1.36706 11.8248 1.42413 11.6608 1.53335 11.5332L11.5334 1.53322C11.6583 1.40905 11.8272 1.33936 12.0034 1.33936C12.1795 1.33936 12.3484 1.40905 12.4734 1.53322L22.4734 11.5332C22.5651 11.6268 22.6272 11.7454 22.6519 11.8741C22.6767 12.0028 22.6629 12.1359 22.6124 12.2568C22.5619 12.3777 22.4769 12.4811 22.368 12.554C22.2591 12.6269 22.1311 12.666 22 12.6666V12.6666Z" fill="#0060AF"/>
<path d="M12 5.19336L4 13.22V21.3334C4 21.687 4.14048 22.0261 4.39052 22.2762C4.64057 22.5262 4.97971 22.6667 5.33333 22.6667H10V16H14V22.6667H18.6667C19.0203 22.6667 19.3594 22.5262 19.6095 22.2762C19.8595 22.0261 20 21.687 20 21.3334V13.1734L12 5.19336Z" fill="#0060AF"/>
</g>
<defs>
<clipPath id="clip0_114_740">
<rect width="24" height="24" fill="white"/>
</clipPath>
</defs>
</svg>
