<?xml version="1.0" encoding="utf-8"?>

<!DOCTYPE svg PUBLIC "-//W3C//DTD SVG 1.1//EN" "http://www.w3.org/Graphics/SVG/1.1/DTD/svg11.dtd">
<!-- Uploaded to: SVG Repo, www.svgrepo.com, Generator: SVG Repo Mixer Tools -->
<svg version="1.1" id="_x32_" xmlns="http://www.w3.org/2000/svg" xmlns:xlink="http://www.w3.org/1999/xlink" 
	 width="800px" height="800px" viewBox="0 0 512 512"  xml:space="preserve">
<style type="text/css">
<![CDATA[
	.st0{fill:#000000;}
]]>
</style>
<g>
	<path class="st0" d="M147.047,332.688c-3.438,7.359-8.234,12.031-13.266,15.016c-2.375,1.422-4.828,2.406-7.172,3.078
		l-8.094-29.922h-57.5l20.047,101.25c1.219,6.172,6.641,10.641,12.953,10.641h37.516c4.125,0,8-1.922,10.5-5.188
		c2.516-3.266,3.344-7.5,2.266-11.469l-14.031-51.813c1.078-0.297,2.172-0.641,3.266-1.047c7.344-2.688,14.938-7.703,20.875-15.703
		c4.328-5.781,7.688-13.109,9.578-21.953c-4.422-0.844-9.031-1.609-13.797-2.281C149.391,326.828,148.328,329.953,147.047,332.688z"
		/>
	<path class="st0" d="M310.844,79.25c-10.563,0-27.578,18.016-34.922,25.359c-6.375,6.375-56.609,56.359-184.016,56.359V310
		c127.406,0,177.641,49.984,184.016,56.375c7.344,7.328,24.359,25.344,34.922,25.344c10.547,0,19.109-8.563,19.109-19.109V98.359
		C329.953,87.813,321.391,79.25,310.844,79.25z"/>
	<path class="st0" d="M74.516,160.969C33.359,160.969,0,194.328,0,235.484S33.359,310,74.516,310V160.969z"/>
	<path class="st0" d="M345.375,207.516v55.938c15.438,0,27.969-12.516,27.969-27.969S360.813,207.516,345.375,207.516z"/>
	<rect x="436.719" y="226.234" class="st0" width="75.281" height="14.609"/>
	<polygon class="st0" points="494.109,127.688 486.266,115.375 417.766,159.031 425.641,171.359 	"/>
	<polygon class="st0" points="417.766,314.063 486.266,357.734 494.109,345.406 425.641,301.75 	"/>
</g>
</svg>