<?xml version="1.0" encoding="UTF-8" standalone="no"?> <svg width="64" height="64" viewBox="0 0 64 64" fill="none" xmlns="http://www.w3.org/2000/svg">
<path d="M62 12.0001C62.0002 10.1113 61.4656 8.26116 60.4579 6.66369C59.4503 5.06621 58.0108 3.78677 56.3062 2.97345C54.6015 2.16012 52.7014 1.84618 50.8258 2.06797C48.9501 2.28975 47.1756 3.03818 45.7076 4.22664C44.2397 5.41509 43.1383 6.99497 42.531 8.7834C41.9237 10.5718 41.8353 12.4957 42.2761 14.3323C42.7168 16.1689 43.6686 17.8431 45.0214 19.1611C46.3742 20.4792 48.0726 21.3872 49.92 21.7801C49.4729 27.2872 46.97 32.4245 42.9088 36.1708C38.8475 39.9171 33.5253 41.9981 28 42.0001H14V21.8001C16.4281 21.3044 18.5856 19.9249 20.0544 17.9289C21.5231 15.9329 22.1984 13.4626 21.9494 10.997C21.7003 8.53142 20.5446 6.24613 18.7063 4.5842C16.868 2.92227 14.4781 2.00211 12 2.00211C9.52184 2.00211 7.13196 2.92227 5.29369 4.5842C3.45541 6.24613 2.29971 8.53142 2.05063 10.997C1.80156 13.4626 2.47685 15.9329 3.9456 17.9289C5.41435 19.9249 7.57191 21.3044 9.99999 21.8001V42.2001C7.87725 42.6331 5.95254 43.7437 4.51545 45.3649C3.07836 46.9861 2.20663 49.0302 2.03142 51.1896C1.85621 53.3489 2.387 55.5068 3.54392 57.3385C4.70084 59.1701 6.42132 60.5766 8.44649 61.3461C10.4717 62.1157 12.692 62.2068 14.7734 61.6056C16.8547 61.0045 18.6846 59.7437 19.9877 58.0129C21.2907 56.2822 21.9964 54.175 21.9987 52.0086C22.0009 49.8421 21.2995 47.7335 20 46.0001H28C34.5811 45.9983 40.9167 43.5009 45.7289 39.0117C50.5411 34.5224 53.4718 28.3752 53.93 21.8101C56.2033 21.3629 58.2508 20.1403 59.7227 18.351C61.1946 16.5618 61.9995 14.3169 62 12.0001V12.0001ZM5.99999 12.0001C5.99999 10.8134 6.35189 9.65335 7.01118 8.66665C7.67046 7.67996 8.60754 6.91092 9.70389 6.4568C10.8002 6.00267 12.0066 5.88385 13.1705 6.11536C14.3344 6.34687 15.4035 6.91832 16.2426 7.75743C17.0818 8.59655 17.6532 9.66565 17.8847 10.8295C18.1162 11.9934 17.9974 13.1998 17.5433 14.2962C17.0891 15.3925 16.3201 16.3296 15.3334 16.9889C14.3467 17.6482 13.1867 18.0001 12 18.0001C10.4087 18.0001 8.88257 17.3679 7.75735 16.2427C6.63214 15.1175 5.99999 13.5914 5.99999 12.0001V12.0001ZM18 52.0001C18 53.1868 17.6481 54.3468 16.9888 55.3335C16.3295 56.3202 15.3925 57.0892 14.2961 57.5434C13.1997 57.9975 11.9933 58.1163 10.8295 57.8848C9.66557 57.6533 8.59647 57.0818 7.75735 56.2427C6.91824 55.4036 6.34679 54.3345 6.11528 53.1706C5.88377 52.0067 6.00259 50.8003 6.45672 49.704C6.91084 48.6076 7.67988 47.6705 8.66657 47.0113C9.65327 46.352 10.8133 46.0001 12 46.0001C13.5913 46.0001 15.1174 46.6322 16.2426 47.7574C17.3679 48.8826 18 50.4088 18 52.0001ZM52 18.0001C50.8133 18.0001 49.6533 17.6482 48.6666 16.9889C47.6799 16.3296 46.9108 15.3925 46.4567 14.2962C46.0026 13.1998 45.8838 11.9934 46.1153 10.8295C46.3468 9.66565 46.9182 8.59655 47.7574 7.75743C48.5965 6.91832 49.6656 6.34687 50.8294 6.11536C51.9933 5.88385 53.1997 6.00267 54.2961 6.4568C55.3924 6.91092 56.3295 7.67996 56.9888 8.66665C57.6481 9.65335 58 10.8134 58 12.0001C58 13.5914 57.3679 15.1175 56.2426 16.2427C55.1174 17.3679 53.5913 18.0001 52 18.0001Z" fill="black"/>
</svg>
